<?xml version="1.0" encoding="UTF-8"?><svg id="a" xmlns="http://www.w3.org/2000/svg" xmlns:xlink="http://www.w3.org/1999/xlink" viewBox="0 0 501 470"><defs><style>.d,.e{stroke-width:0px;}.e{fill:#ccc;}.f{filter:url(#b);}</style><filter id="b" filterUnits="userSpaceOnUse"><feOffset dx="7" dy="7"/><feGaussianBlur result="c" stdDeviation="5"/><feFlood flood-color="#000" flood-opacity=".4"/><feComposite in2="c" operator="in"/><feComposite in="SourceGraphic"/></filter></defs><rect class="e" x="34.5" y="30.5" width="373" height="370" rx="54.22" ry="54.22"/><path class="d" d="m353.28,35c27.42,0,49.72,22.31,49.72,49.72v261.55c0,27.42-22.31,49.72-49.72,49.72H88.72c-27.42,0-49.72-22.31-49.72-49.72V84.72c0-27.42,22.31-49.72,49.72-49.72h264.55m0-9H88.72c-32.43,0-58.72,26.29-58.72,58.72v261.55c0,32.43,26.29,58.72,58.72,58.72h264.55c32.43,0,58.72-26.29,58.72-58.72V84.72c0-32.43-26.29-58.72-58.72-58.72h0Z"/><g class="f"><path class="d" d="m71.03,277.93c.29.48.8.5,1.52.06.5-.3,2.51-2.1,6.04-5.39,3.52-3.29,6.9-5.96,10.14-8.03-2.91,3.48-5.3,6.66-7.16,9.54-1.86,2.88-3.72,5.96-5.58,9.22-1.86,3.26-3.25,5.52-4.15,6.79-.91,1.26-1.81,2.17-2.69,2.71-2.83,1.73-5.64.33-8.41-4.22-7.14-11.7-9.77-21.38-7.9-29.04.77-3.11,2.5-7.31,5.19-12.59,2.69-5.28,6.02-10.76,9.98-16.44,3.97-5.68,8.68-11.37,14.13-17.06,5.45-5.69,11.34-10.47,17.68-14.34,6.5-3.97,13.19-6.45,20.06-7.43,6.87-.99,13.44-.48,19.69,1.51,6.25,1.99,12.23,5.45,17.94,10.37,5.71,4.92,10.9,11.2,15.56,18.83,7.1,11.63,11.28,24.57,12.55,38.81,1.26,14.25-.07,28.31-3.99,42.18-3.92,13.88-10.06,26.71-18.41,38.52-8.35,11.81-18.03,21.07-29.03,27.79-2.06,1.25-3.85,1.97-5.38,2.15-1.53.18-3.04-.39-4.53-1.7-1.49-1.31-3.2-3.55-5.13-6.72-2.39-3.92-4.1-7.27-5.11-10.06-1.01-2.78-1.92-6.15-2.73-10.09-5.4-26.83-8.35-62.96-8.85-108.38-3.66,3-7.41,6.72-11.25,11.19-3.83,4.47-7.32,8.93-10.47,13.4-3.14,4.47-5.66,8.47-7.56,11.98-1.89,3.52-2.61,5.66-2.15,6.41Zm33.46-45.08c.08.14.67.84,1.75,2.12,1.08,1.28,1.94,2.43,2.57,3.46.97,1.58,1.67,4.2,2.11,7.85.44,3.65.97,10.3,1.59,19.93.62,9.64,1.25,18.04,1.89,25.2.64,7.17,1.74,16.22,3.32,27.17.51,3.46.84,5.81.99,7.05.14,1.24.4,3.25.77,6.04.37,2.8.82,5.12,1.34,6.97.52,1.86,1.04,3.19,1.54,4.02,1.09,1.79,2.65,2.56,4.68,2.32,2.03-.25,4.51-1.27,7.45-3.07,7.56-4.61,14.52-11.2,20.88-19.77,6.37-8.56,11.41-18.14,15.13-28.72,3.72-10.58,5.47-21.05,5.25-31.4-.22-10.35-2.87-19.69-7.95-28.02-5.8-9.5-13.07-15.09-21.81-16.79-8.74-1.7-18.48.73-29.2,7.27-4.5,2.75-8.6,5.53-12.29,8.36Z"/><path class="d" d="m251.82,221.52l12.58-7.68c-.12-16.55-1.02-30.5-2.72-41.84-1.7-11.34-3.41-18.42-5.13-21.24-2.39-3.92-6.32-4.22-11.76-.9-2.96,2.28-8.05,6.55-15.29,12.81-7.24,6.26-14.07,12.63-20.49,19.1-5.81,5.72-10.25,10.67-13.3,14.85-3.05,4.18-5.08,7.33-6.07,9.45-.99,2.12-1.54,3.54-1.63,4.26,3.94-2.79,7.33-5.04,10.17-6.77,4.44-2.71,7.05-3.45,7.8-2.21.34.55-.79,2.21-3.38,4.97-2.59,2.76-4.98,5.47-7.17,8.13-2.13,2.63-4.09,5.38-5.88,8.27s-2.96,4.5-3.51,4.84c-1.28.78-2.7.82-4.27.13-1.57-.69-2.88-1.9-3.93-3.62-.71-1.17-1.81-4.68-3.29-10.53-1.48-5.85-2.35-12.12-2.62-18.81-.27-6.68.92-12.49,3.56-17.41.95-1.81,4.76-6.35,11.42-13.63,6.66-7.28,14.48-14.98,23.47-23.12,8.99-8.13,17.71-14.78,26.16-19.94,5.11-3.12,9.75-4.75,13.9-4.88,4.16-.13,8,2.7,11.53,8.48,1.13,1.86,2.33,5.07,3.6,9.64,1.26,4.57,2.54,10.62,3.81,18.15,1.28,7.53,2.39,15.97,3.33,25.31.94,9.35,1.64,19.4,2.11,30.17l12.84-7.84.95,26.48c-1.42,1.05-3.23,2.3-5.44,3.74-2.21,1.44-4.6,3.05-7.19,4.82-.11,15.18-1.19,30.06-3.24,44.63-2.05,14.57-4.53,26.76-7.43,36.56-2.9,9.8-5.66,15.5-8.27,17.09-1.06.64-2.24.77-3.54.39-1.3-.38-2.38-1.27-3.21-2.64-.71-1.17-1.31-4.92-1.77-11.24-.47-6.33.21-12.93,2.04-19.81,1.83-6.88,5.4-12.27,10.72-16.18.47-4.35.82-8.18,1.05-11.48.23-3.3.51-8.06.85-14.26.33-6.2.59-10.96.77-14.29l-24.14,16.87c-2.64,1.8-4.61,2.79-5.91,2.97-1.3.18-2.5-.62-3.59-2.41-1.03-4.19-1.64-7.12-1.83-8.8-.33-2.54-.36-4.17-.08-4.91.28-.73,1.45-2.21,3.53-4.42l12.5-14.01c3.31-3.82,5.78-6.22,7.39-7.2Z"/><path class="d" d="m328.28,149.61l-.47,8.79c5.28-2.47,10.15-4.43,14.61-5.87,4.46-1.45,8.68-2.61,12.68-3.5,4-.88,7.63-1.47,10.88-1.76,11.55-.82,19.81,2.83,24.77,10.95,3.02,4.95,4.15,10.93,3.38,17.91-.77,6.99-2.95,14.13-6.54,21.42-3.59,7.3-7.85,13.88-12.76,19.77s-9.9,10.37-14.96,13.45c-8.45,5.16-16.22,7.23-23.31,6.23-7.1-1-12.7-4.88-16.82-11.62-2.86-4.68-4.77-11.06-5.75-19.16-.98-8.09-1.31-18.7-1.01-31.83-4.72,2.51-8.46,3.63-11.21,3.38-2.75-.26-4.9-1.66-6.46-4.2-.97-1.58-1.34-3.01-1.12-4.27.22-1.27.82-2.46,1.81-3.59.99-1.12,3.06-3.02,6.19-5.69,3.14-2.67,7.18-6.08,12.12-10.23.43-12.92,1.62-23.17,3.6-30.75,1.97-7.58,5.5-13.39,10.58-17.44.4-.34.87-.67,1.4-.99.53-.32.9-.31,1.11.03.25.41.3,1.9.14,4.45-.16,2.55-.44,6.65-.85,12.28-.41,5.63-.9,12.31-1.45,20.01,9.4-8.1,16.73-15.29,22.01-21.58,5.27-6.29,8.66-12.02,10.16-17.18,1.5-5.17,1.09-9.64-1.22-13.43-2.81-4.61-6.66-6.84-11.53-6.7-4.87.14-11.03,2.48-18.48,7.03-4.11,2.51-8.51,5.9-13.18,10.17-4.68,4.27-8.77,8.38-12.28,12.31-3.51,3.94-6.49,7.67-8.95,11.2-2.46,3.53-3.48,5.64-3.06,6.33.13.21.42.31.88.31,3.48-.42,5.47-.22,5.97.6.67,1.1-2.2,5.76-8.63,13.98-6.42,8.22-11.08,13.21-13.97,14.98-2.06,1.26-3.86.61-5.42-1.93-1.85-3.03-2.94-9.84-3.28-20.46-.34-10.61.66-18.13,2.98-22.58.82-1.54,3.05-4.56,6.71-9.06,3.66-4.5,7.82-9.21,12.48-14.14,4.66-4.92,9.56-9.67,14.71-14.23,5.15-4.56,9.94-8.2,14.39-10.91,10.5-6.41,19.81-8.91,27.92-7.49,8.12,1.42,14.32,5.64,18.6,12.66,2.9,4.75,4.49,10.06,4.76,15.94.27,5.88-.95,12.34-3.67,19.38-2.72,7.04-7.27,14.55-13.66,22.51-6.39,7.96-14.66,16.13-24.8,24.5Zm-.71,18.71c-.28,6.03-.55,11.37-.81,16.01-.25,4.64-.25,8.28.02,10.9.27,2.62,1.03,4.97,2.29,7.03,2.02,3.3,5.19,5.4,9.51,6.3,4.33.9,9.07-.23,14.24-3.38,4.78-2.92,9.24-7.08,13.37-12.49,4.14-5.41,7.02-10.92,8.66-16.55,1.64-5.63,1.4-10.16-.7-13.6-1.81-2.96-4.66-4.57-8.56-4.83-3.9-.26-9.08.56-15.54,2.47-6.46,1.91-13.96,4.63-22.49,8.14Z"/></g></svg>